<?xml version="1.0" standalone="no"?>
<!DOCTYPE svg PUBLIC "-//W3C//DTD SVG 20010904//EN"
 "http://www.w3.org/TR/2001/REC-SVG-20010904/DTD/svg10.dtd">
<svg version="1.0" xmlns="http://www.w3.org/2000/svg"
 width="1143.000000pt" height="1143.000000pt" viewBox="0 0 1143.000000 1143.000000"
 preserveAspectRatio="xMidYMid meet">
<metadata>
Created by potrace 1.14, written by Peter Selinger 2001-2017
</metadata>
<g transform="translate(0.000000,1143.000000) scale(0.100000,-0.100000)"
fill="#000000" stroke="none">
<path d="M5408 11355 c-1 -2 -46 -6 -98 -10 -52 -4 -111 -8 -130 -10 -19 -2
-64 -6 -100 -10 -36 -3 -78 -8 -95 -11 -16 -3 -46 -7 -65 -9 -32 -3 -189 -28
-250 -39 -14 -3 -36 -7 -50 -10 -345 -63 -814 -206 -1150 -349 -402 -171 -739
-359 -1100 -616 -112 -79 -332 -249 -350 -270 -3 -4 -21 -19 -40 -35 -203
-166 -549 -520 -733 -751 -27 -33 -54 -67 -60 -75 -68 -83 -251 -344 -314
-446 -6 -10 -39 -63 -72 -117 -34 -53 -61 -100 -61 -102 0 -3 -11 -23 -24 -44
-73 -116 -230 -446 -324 -682 -84 -211 -203 -586 -237 -748 -2 -9 -12 -54 -24
-101 -17 -72 -29 -139 -55 -290 -7 -38 -28 -181 -32 -215 -2 -16 -6 -55 -9
-85 -3 -30 -8 -71 -10 -90 -14 -110 -20 -277 -20 -525 0 -250 4 -341 20 -535
6 -60 33 -279 40 -320 3 -14 10 -54 15 -90 35 -218 146 -667 200 -805 4 -11
27 -74 50 -140 23 -66 48 -133 55 -150 7 -16 28 -66 45 -110 170 -430 494
-973 810 -1360 36 -44 74 -91 85 -104 184 -227 558 -589 815 -791 172 -134
497 -361 570 -398 14 -6 48 -26 75 -43 214 -134 582 -311 880 -424 326 -123
742 -237 1055 -289 93 -16 316 -47 372 -52 35 -3 73 -7 86 -9 164 -27 827 -26
1072 0 19 2 67 6 105 10 39 3 77 7 85 10 8 2 38 6 65 10 28 3 79 11 115 17 36
5 76 12 90 14 21 3 205 40 299 60 258 55 738 211 959 310 29 13 80 36 115 50
89 38 336 163 452 229 55 32 116 66 135 77 181 103 573 381 724 513 6 6 43 37
81 70 275 236 586 565 802 850 175 230 381 548 484 747 166 319 282 586 378
875 42 125 94 297 106 353 2 8 15 60 29 115 36 146 77 354 90 455 3 19 7 49
10 65 12 76 32 264 43 405 15 200 7 783 -12 925 -3 17 -12 89 -20 160 -42 348
-126 717 -243 1070 -44 131 -92 265 -115 317 -8 18 -34 78 -57 133 -91 214
-279 573 -382 728 -21 32 -38 61 -38 64 0 9 -196 289 -265 378 -45 58 -149
189 -155 195 -3 3 -32 37 -65 75 -150 177 -403 429 -584 585 -35 30 -69 60
-75 65 -6 6 -54 44 -106 86 -237 187 -373 281 -640 441 -63 37 -122 73 -130
78 -29 18 -425 216 -480 239 -134 57 -242 101 -340 136 -58 20 -114 42 -125
47 -12 5 -27 10 -35 12 -8 1 -46 13 -85 25 -184 59 -397 115 -575 150 -58 12
-116 23 -130 26 -14 3 -41 8 -60 11 -19 3 -60 9 -90 14 -104 17 -291 40 -385
46 -38 3 -83 7 -100 10 -33 6 -711 15 -717 9z"/>
</g>
</svg>
